<svg width="2191" height="628" viewBox="0 0 2191 628" fill="none" xmlns="http://www.w3.org/2000/svg">
<path d="M92.5 112.275L83 603.275L244.5 438.275L475.5 420.775L92.5 112.275Z" fill="#0E2196"/>
<path fill-rule="evenodd" clip-rule="evenodd" d="M170.668 174.918C150.422 178.432 131.788 185.215 114.767 195.266C106.054 200.412 97.9807 206.163 90.5468 212.519L85.5508 471.259C94.3243 479.373 104.063 486.591 114.767 492.912C132.052 503.04 150.886 509.849 171.268 513.34L244.502 438.276L354.626 429.915C360.39 419.038 364.507 407.893 366.978 396.479H247.363C241.182 412.551 226.243 420.587 202.547 420.587C170.608 420.587 151.548 404.206 145.366 371.443H370.378C371.821 361.759 372.542 352.692 372.542 344.244C372.542 342.122 372.511 340.013 372.451 337.916L170.668 174.918ZM240.255 272.537C249.939 279.749 255.503 289.33 256.945 301.281H149.384C154.536 287.064 162.057 276.864 171.947 270.682C181.838 264.501 193.171 261.41 205.947 261.41C219.134 261.41 230.57 265.119 240.255 272.537Z" fill="#FFB51B"/>
<path d="M74.6419 24L89.6628 101.679L46.7461 35.5875L74.6419 24Z" fill="#0E2196"/>
<path d="M104.254 45.0293L111.55 104.254L127 46.3168L104.254 45.0293Z" fill="#FFB51B"/>
<path d="M39.45 69.4922L75.5 119.276L24 86.6589L39.45 69.4922Z" fill="#FFB51B"/>
<path d="M680.125 379.538C680.125 382.875 679.84 386.455 679.271 390.28H590.403C592.845 403.22 600.372 409.689 612.986 409.689C622.345 409.689 628.245 406.516 630.687 400.168H677.928C676.219 408.062 672.516 415.63 666.819 422.873C661.204 430.035 653.839 435.935 644.725 440.573C635.61 445.131 625.315 447.409 613.841 447.409C600.576 447.409 588.735 444.357 578.318 438.254C567.983 432.15 559.926 423.931 554.148 413.596C548.452 403.179 545.604 391.826 545.604 379.538C545.604 367.168 548.452 355.816 554.148 345.48C559.926 335.064 567.983 326.804 578.318 320.7C588.654 314.597 600.494 311.545 613.841 311.545C627.187 311.545 638.865 314.597 648.875 320.7C658.966 326.722 666.697 334.901 672.068 345.236C677.439 355.572 680.125 367.006 680.125 379.538ZM634.471 362.57C633.901 357.85 631.704 354.066 627.879 351.218C624.054 348.288 619.537 346.823 614.329 346.823C609.284 346.823 604.808 348.044 600.901 350.485C596.995 352.927 594.025 356.955 591.99 362.57H634.471ZM692.21 409.445L769.48 315.329H697.215V277.121H830.394L830.271 310.08L752.757 404.807H832.347V443.137H692.82L692.21 409.445ZM874.949 305.075C869.66 305.075 865.062 304.058 861.155 302.023C857.33 299.908 854.401 297.1 852.366 293.601C850.413 290.02 849.437 286.073 849.437 281.76C849.437 277.447 850.413 273.54 852.366 270.041C854.401 266.46 857.33 263.653 861.155 261.618C865.062 259.502 869.7 258.444 875.071 258.444C880.524 258.444 885.203 259.502 889.109 261.618C893.016 263.653 895.945 266.46 897.898 270.041C899.933 273.54 900.95 277.447 900.95 281.76C900.95 286.154 899.933 290.142 897.898 293.723C895.945 297.222 892.975 299.989 888.987 302.023C885.081 304.058 880.402 305.075 874.949 305.075ZM852.732 315.817H897.41V443.137H852.732V315.817ZM1078.81 311.545C1094.59 311.545 1106.35 317.16 1114.08 328.391C1121.9 339.54 1125.8 355.124 1125.8 375.144V443.137H1081.74V376.12C1081.74 367.819 1080.23 361.797 1077.22 358.054C1074.29 354.31 1070.3 352.438 1065.26 352.438C1061.84 352.438 1058.62 353.659 1055.61 356.101C1052.68 358.461 1050.32 361.879 1048.53 366.354C1046.74 370.749 1045.85 375.835 1045.85 381.613V443.137H1001.78V376.12C1001.78 367.819 1000.27 361.797 997.264 358.054C994.334 354.31 990.346 352.438 985.301 352.438C981.883 352.438 978.668 353.659 975.657 356.101C972.728 358.461 970.368 361.879 968.577 366.354C966.787 370.749 965.892 375.835 965.892 381.613V443.137H921.824V315.817H963.45L964.061 327.292C967.479 322.572 972.239 318.788 978.343 315.939C984.446 313.01 991.282 311.545 998.851 311.545C1017 311.545 1029.98 319.113 1037.79 334.25C1043.73 326.193 1050.04 320.415 1056.71 316.916C1063.39 313.335 1070.75 311.545 1078.81 311.545ZM1233.84 446.677C1217.8 446.677 1203.07 442.811 1189.65 435.08C1176.22 427.349 1165.6 416.851 1157.79 403.586C1150.06 390.321 1146.19 375.754 1146.19 359.885C1146.19 344.016 1150.06 329.489 1157.79 316.306C1165.6 303.041 1176.22 292.543 1189.65 284.812C1203.07 277.08 1217.8 273.215 1233.84 273.215C1246.04 273.215 1257.76 275.616 1268.99 280.417C1280.3 285.218 1289.99 292.502 1298.04 302.268C1306.18 312.033 1311.47 323.955 1313.91 338.034H1282.91C1279.73 325.746 1273.71 316.509 1264.84 310.324C1255.97 304.139 1245.35 301.047 1232.98 301.047C1222.56 301.047 1213.04 303.529 1204.42 308.493C1195.87 313.376 1189.08 320.293 1184.03 329.245C1179.07 338.197 1176.58 348.451 1176.58 360.007C1176.58 371.726 1179.07 382.02 1184.03 390.891C1189 399.761 1195.75 406.638 1204.29 411.521C1212.92 416.322 1222.48 418.723 1232.98 418.723C1245.35 418.723 1255.97 415.671 1264.84 409.567C1273.71 403.382 1279.69 394.146 1282.79 381.857H1313.91C1311.47 396.018 1306.22 407.98 1298.17 417.746C1290.11 427.512 1280.43 434.795 1269.11 439.597C1257.88 444.317 1246.12 446.677 1233.84 446.677ZM1396.56 446.921C1384.1 446.921 1372.83 443.951 1362.74 438.01C1352.73 432.069 1344.88 424.053 1339.18 413.962C1333.49 403.789 1330.64 392.6 1330.64 380.393C1330.64 368.267 1333.49 357.118 1339.18 346.945C1344.88 336.773 1352.73 328.716 1362.74 322.775C1372.83 316.835 1384.15 313.864 1396.68 313.864C1409.29 313.864 1420.64 316.835 1430.74 322.775C1440.83 328.716 1448.72 336.773 1454.42 346.945C1460.11 357.118 1462.96 368.267 1462.96 380.393C1462.96 392.6 1460.11 403.789 1454.42 413.962C1448.72 424.134 1440.79 432.191 1430.61 438.132C1420.52 443.991 1409.17 446.921 1396.56 446.921ZM1396.8 419.455C1403.8 419.455 1410.06 417.787 1415.6 414.45C1421.21 411.114 1425.61 406.475 1428.78 400.534C1432.04 394.593 1433.67 387.88 1433.67 380.393C1433.67 372.987 1432.04 366.314 1428.78 360.373C1425.61 354.351 1421.21 349.672 1415.6 346.335C1409.98 342.917 1403.72 341.208 1396.8 341.208C1389.88 341.208 1383.62 342.917 1378 346.335C1372.39 349.672 1367.95 354.351 1364.7 360.373C1361.52 366.314 1359.93 372.987 1359.93 380.393C1359.93 387.88 1361.52 394.593 1364.7 400.534C1367.95 406.475 1372.35 411.114 1377.88 414.45C1383.49 417.787 1389.8 419.455 1396.8 419.455ZM1516.79 317.648V337.18C1520.46 330.181 1526.11 324.566 1533.76 320.334C1541.49 316.021 1550.12 313.864 1559.64 313.864C1576.32 313.864 1588.9 319.154 1597.36 329.733C1605.82 340.313 1610.06 355.572 1610.06 375.51V443.137H1580.52V376.12C1580.52 364.076 1577.99 355.246 1572.95 349.631C1567.9 343.934 1560.74 341.086 1551.46 341.086C1545.52 341.086 1540.03 342.591 1534.98 345.603C1529.94 348.532 1525.87 352.886 1522.78 358.664C1519.77 364.361 1518.26 371.156 1518.26 379.05V443.137H1488.72V317.648H1516.79ZM1671.82 317.648V337.18C1675.49 330.181 1681.14 324.566 1688.79 320.334C1696.52 316.021 1705.15 313.864 1714.67 313.864C1731.35 313.864 1743.93 319.154 1752.39 329.733C1760.85 340.313 1765.09 355.572 1765.09 375.51V443.137H1735.54V376.12C1735.54 364.076 1733.02 355.246 1727.98 349.631C1722.93 343.934 1715.77 341.086 1706.49 341.086C1700.55 341.086 1695.06 342.591 1690.01 345.603C1684.97 348.532 1680.9 352.886 1677.81 358.664C1674.79 364.361 1673.29 371.156 1673.29 379.05V443.137H1643.75V317.648H1671.82ZM1918.16 378.195C1918.16 380.962 1917.96 384.299 1917.55 388.205H1819.53C1820.51 394.878 1822.62 400.656 1825.88 405.539C1829.21 410.422 1833.32 414.165 1838.21 416.77C1843.17 419.292 1848.54 420.554 1854.32 420.554C1861.64 420.554 1867.62 419.13 1872.26 416.281C1876.98 413.352 1880.44 409.16 1882.64 403.708H1914.87C1912.67 411.439 1908.8 418.601 1903.27 425.192C1897.74 431.784 1890.78 437.074 1882.4 441.062C1874.09 444.968 1864.94 446.921 1854.93 446.921C1842.64 446.921 1831.53 443.951 1821.6 438.01C1811.68 432.069 1803.9 424.012 1798.29 413.84C1792.67 403.667 1789.87 392.518 1789.87 380.393C1789.87 368.267 1792.67 357.118 1798.29 346.945C1803.9 336.773 1811.68 328.716 1821.6 322.775C1831.53 316.835 1842.64 313.864 1854.93 313.864C1867.22 313.864 1878.16 316.794 1887.77 322.653C1897.37 328.513 1904.82 336.366 1910.11 346.213C1915.48 355.979 1918.16 366.639 1918.16 378.195ZM1888.01 365.378C1887.6 360.739 1885.85 356.467 1882.76 352.561C1879.67 348.573 1875.64 345.44 1870.68 343.161C1865.79 340.801 1860.5 339.621 1854.81 339.621C1846.91 339.621 1839.83 341.818 1833.57 346.213C1827.38 350.526 1823.11 356.914 1820.75 365.378H1888.01ZM1998.24 446.921C1986.03 446.921 1974.97 443.951 1965.04 438.01C1955.19 432.069 1947.46 424.012 1941.84 413.84C1936.23 403.667 1933.42 392.518 1933.42 380.393C1933.42 368.348 1936.23 357.24 1941.84 347.067C1947.46 336.895 1955.19 328.838 1965.04 322.897C1974.97 316.875 1986.03 313.864 1998.24 313.864C2008.74 313.864 2018.3 315.939 2026.93 320.09C2035.55 324.159 2042.76 329.855 2048.53 337.18C2054.31 344.423 2058.38 352.683 2060.74 361.96H2030.59C2027.82 355.205 2023.59 350.078 2017.89 346.579C2012.28 343.08 2005.77 341.33 1998.36 341.33C1992.18 341.33 1986.36 342.917 1980.91 346.091C1975.45 349.183 1971.06 353.7 1967.72 359.641C1964.39 365.581 1962.72 372.499 1962.72 380.393C1962.72 388.368 1964.39 395.326 1967.72 401.267C1971.06 407.126 1975.45 411.643 1980.91 414.816C1986.36 417.99 1992.18 419.577 1998.36 419.577C2005.85 419.577 2012.44 417.746 2018.14 414.084C2023.83 410.34 2027.98 404.725 2030.59 397.238H2060.62C2058.42 406.923 2054.43 415.549 2048.66 423.117C2042.96 430.604 2035.76 436.464 2027.05 440.695C2018.34 444.846 2008.74 446.921 1998.24 446.921ZM2133.86 443.137C2121.9 443.137 2111.97 439.841 2104.08 433.249C2096.18 426.576 2092.23 413.962 2092.23 395.407V343.039H2066.23V317.648H2092.23V280.905L2121.78 280.661V317.648H2159.37V343.039H2121.78V396.75C2121.78 411.317 2127.84 418.601 2139.96 418.601H2159.37V443.137H2133.86Z" fill="black"/>
</svg>
